<svg width="86" height="19" fill="none" xmlns="http://www.w3.org/2000/svg"><path fill-rule="evenodd" clip-rule="evenodd" d="M14.54 3.4h6v14.64h2.4V3.4h6V1.24h-14.4V3.4zM37.34 1c-2.32 0-4.22.78-5.7 2.33-1.48 1.55-2.22 3.66-2.22 6.31 0 2.66.74 4.76 2.22 6.31a7.53 7.53 0 005.7 2.33c2.32 0 4.22-.77 5.7-2.33 1.48-1.55 2.22-3.65 2.22-6.3 0-2.66-.74-4.77-2.22-6.32A7.53 7.53 0 0037.34 1zm4.02 13.38a4.9 4.9 0 01-3.9 1.74h-.24a4.9 4.9 0 01-3.9-1.74c-1-1.16-1.5-2.74-1.5-4.74s.5-3.58 1.5-4.74a4.9 4.9 0 013.9-1.74h.24c1.6 0 2.9.58 3.9 1.74 1 1.16 1.5 2.74 1.5 4.74s-.5 3.58-1.5 4.74zM60.2 8.54c.53-.77.79-1.68.79-2.74 0-1.33-.5-2.42-1.48-3.28a5.59 5.59 0 00-3.8-1.28h-7.2v16.8h2.4V3.4h4.44c1.02 0 1.82.24 2.38.7.57.48.86 1.17.86 2.06 0 .87-.3 1.58-.88 2.15-.58.57-1.37.85-2.36.85h-2.28v2.16h3.6c.65 0 1.1.12 1.33.35.23.23.35.68.35 1.33v5.04h2.4V12.4c0-.85-.19-1.45-.56-1.8-.36-.37-1.02-.55-1.96-.55.8-.24 1.46-.74 1.98-1.51zM9.47 8.68l-3.16-.55C4.86 7.89 4 7.03 4 5.83c0-1.56 1.45-2.67 3.4-2.67 2.04 0 3.6 1.23 3.7 3.12h2.4C13.4 3.07 11.06 1 7.53 1 4 1 1.6 3.07 1.6 6.07c0 2.35 1.49 3.98 4.25 4.46l3.17.55c1.8.31 2.64 1.16 2.64 2.43 0 1.56-1.27 2.61-3.8 2.61-2.7 0-4.46-1.22-4.46-3.48H1c.14 3.7 2.6 5.64 6.65 5.64 3.89 0 6.4-1.77 6.4-4.94 0-2.47-1.53-4.13-4.58-4.66zM75.93 8.54c.52-.77.78-1.68.78-2.74 0-1.33-.5-2.42-1.48-3.28a5.59 5.59 0 00-3.8-1.28h-7.2v16.8h2.4V3.4h4.44c1.02 0 1.82.24 2.39.7.56.48.85 1.17.85 2.06 0 .87-.3 1.58-.88 2.15-.58.57-1.37.85-2.36.85h-2.28v2.16h3.6c.65 0 1.1.12 1.33.35.23.23.35.68.35 1.33v5.04h2.4V12.4c0-.85-.18-1.45-.55-1.8-.37-.37-1.03-.55-1.97-.55.8-.24 1.46-.74 1.98-1.51z" fill="#fff" stroke="#fff" stroke-width=".5"/><path fill-rule="evenodd" clip-rule="evenodd" d="M80.78 5.56h4.33V1.24h-4.33v4.32zM80.78 18.04h4.33v-4.32h-4.33v4.32z" fill="#fff"/></svg>
